<mxfile host="Electron" agent="Mozilla/5.0 (Windows NT 10.0; Win64; x64) AppleWebKit/537.36 (KHTML, like Gecko) draw.io/24.7.17 Chrome/128.0.6613.36 Electron/32.0.1 Safari/537.36" version="24.7.17">
  <diagram name="Page-1" id="e7e014a7-5840-1c2e-5031-d8a46d1fe8dd">
    <mxGraphModel dx="1434" dy="28" grid="1" gridSize="10" guides="1" tooltips="1" connect="1" arrows="1" fold="1" page="1" pageScale="1" pageWidth="1169" pageHeight="826" background="none" math="0" shadow="0">
      <root>
        <mxCell id="0" />
        <mxCell id="1" parent="0" />
        <mxCell id="9m_wbiXVtuzaQrBLn2AB-62" value="User" style="swimlane;whiteSpace=wrap;fontSize=16;" vertex="1" parent="1">
          <mxGeometry x="25" y="850" width="280" height="570" as="geometry" />
        </mxCell>
        <mxCell id="9m_wbiXVtuzaQrBLn2AB-103" value="" style="ellipse;shape=startState;fillColor=#000000;strokeColor=#ff0000;fontSize=16;" vertex="1" parent="9m_wbiXVtuzaQrBLn2AB-62">
          <mxGeometry x="125" y="50" width="30" height="30" as="geometry" />
        </mxCell>
        <mxCell id="9m_wbiXVtuzaQrBLn2AB-104" value="Ввод поискового&#xa;запроса" style="fontSize=16;" vertex="1" parent="9m_wbiXVtuzaQrBLn2AB-62">
          <mxGeometry x="70" y="110" width="140" height="50" as="geometry" />
        </mxCell>
        <mxCell id="9m_wbiXVtuzaQrBLn2AB-105" value="" style="edgeStyle=elbowEdgeStyle;elbow=horizontal;verticalAlign=bottom;endArrow=open;endSize=8;strokeColor=#FF0000;endFill=1;rounded=0;entryX=0.5;entryY=0;entryDx=0;entryDy=0;exitX=0.5;exitY=1;exitDx=0;exitDy=0;fontSize=16;" edge="1" parent="9m_wbiXVtuzaQrBLn2AB-62" source="9m_wbiXVtuzaQrBLn2AB-103" target="9m_wbiXVtuzaQrBLn2AB-104">
          <mxGeometry x="75" y="-810" as="geometry">
            <mxPoint x="265.5" y="-602" as="targetPoint" />
            <mxPoint x="264.5" y="-642" as="sourcePoint" />
          </mxGeometry>
        </mxCell>
        <mxCell id="9m_wbiXVtuzaQrBLn2AB-118" value="" style="ellipse;shape=endState;fillColor=#000000;strokeColor=#ff0000;fontSize=16;" vertex="1" parent="9m_wbiXVtuzaQrBLn2AB-62">
          <mxGeometry x="125" y="510" width="30" height="30" as="geometry" />
        </mxCell>
        <mxCell id="9m_wbiXVtuzaQrBLn2AB-119" value="Найден&#xa;интересующий&#xa;товар?" style="rhombus;fillColor=#ffffc0;strokeColor=#ff0000;fontColor=#000000;fontSize=16;" vertex="1" parent="9m_wbiXVtuzaQrBLn2AB-62">
          <mxGeometry x="70" y="260" width="140" height="100" as="geometry" />
        </mxCell>
        <mxCell id="9m_wbiXVtuzaQrBLn2AB-121" value="" style="endArrow=open;strokeColor=#FF0000;endFill=1;rounded=0;exitX=0;exitY=0.5;exitDx=0;exitDy=0;entryX=0;entryY=0.5;entryDx=0;entryDy=0;fontSize=16;" edge="1" parent="9m_wbiXVtuzaQrBLn2AB-62" source="9m_wbiXVtuzaQrBLn2AB-119" target="9m_wbiXVtuzaQrBLn2AB-118">
          <mxGeometry relative="1" as="geometry">
            <mxPoint x="375" y="320" as="sourcePoint" />
            <mxPoint x="220" y="320" as="targetPoint" />
            <Array as="points">
              <mxPoint x="35" y="310" />
              <mxPoint x="35" y="490" />
              <mxPoint x="35" y="525" />
            </Array>
          </mxGeometry>
        </mxCell>
        <mxCell id="9m_wbiXVtuzaQrBLn2AB-122" value="НЕТ" style="edgeLabel;html=1;align=center;verticalAlign=middle;resizable=0;points=[];fontSize=16;" vertex="1" connectable="0" parent="9m_wbiXVtuzaQrBLn2AB-121">
          <mxGeometry x="-0.8882" y="1" relative="1" as="geometry">
            <mxPoint y="-1" as="offset" />
          </mxGeometry>
        </mxCell>
        <mxCell id="9m_wbiXVtuzaQrBLn2AB-124" value="Выбор товара&#xa;из списка" style="fontSize=16;" vertex="1" parent="9m_wbiXVtuzaQrBLn2AB-62">
          <mxGeometry x="70" y="410" width="140" height="50" as="geometry" />
        </mxCell>
        <mxCell id="9m_wbiXVtuzaQrBLn2AB-125" value="" style="endArrow=open;strokeColor=#FF0000;endFill=1;rounded=0;exitX=0.5;exitY=1;exitDx=0;exitDy=0;entryX=0.5;entryY=0;entryDx=0;entryDy=0;fontSize=16;" edge="1" parent="9m_wbiXVtuzaQrBLn2AB-62" source="9m_wbiXVtuzaQrBLn2AB-119" target="9m_wbiXVtuzaQrBLn2AB-124">
          <mxGeometry relative="1" as="geometry">
            <mxPoint x="710" y="250" as="sourcePoint" />
            <mxPoint x="710" y="280" as="targetPoint" />
          </mxGeometry>
        </mxCell>
        <mxCell id="9m_wbiXVtuzaQrBLn2AB-126" value="ДА" style="edgeLabel;html=1;align=center;verticalAlign=middle;resizable=0;points=[];fontSize=16;" vertex="1" connectable="0" parent="9m_wbiXVtuzaQrBLn2AB-125">
          <mxGeometry x="-0.16" relative="1" as="geometry">
            <mxPoint as="offset" />
          </mxGeometry>
        </mxCell>
        <mxCell id="9m_wbiXVtuzaQrBLn2AB-71" value="Frontend" style="swimlane;whiteSpace=wrap;fontSize=16;" vertex="1" parent="1">
          <mxGeometry x="305" y="850" width="280" height="570" as="geometry" />
        </mxCell>
        <mxCell id="9m_wbiXVtuzaQrBLn2AB-106" value="Генерация&#xa;get-запроса" style="fontSize=16;" vertex="1" parent="9m_wbiXVtuzaQrBLn2AB-71">
          <mxGeometry x="70" y="110" width="140" height="50" as="geometry" />
        </mxCell>
        <mxCell id="9m_wbiXVtuzaQrBLn2AB-116" value="Отрисовка&#xa;страницы" style="fontSize=16;" vertex="1" parent="9m_wbiXVtuzaQrBLn2AB-71">
          <mxGeometry x="70" y="285" width="140" height="50" as="geometry" />
        </mxCell>
        <mxCell id="9m_wbiXVtuzaQrBLn2AB-128" value="Генерация&#xa;get-запроса" style="fontSize=16;" vertex="1" parent="9m_wbiXVtuzaQrBLn2AB-71">
          <mxGeometry x="70" y="410" width="140" height="50" as="geometry" />
        </mxCell>
        <mxCell id="9m_wbiXVtuzaQrBLn2AB-136" value="Отрисовка&#xa;страницы" style="fontSize=16;" vertex="1" parent="9m_wbiXVtuzaQrBLn2AB-71">
          <mxGeometry x="70" y="500" width="140" height="50" as="geometry" />
        </mxCell>
        <mxCell id="9m_wbiXVtuzaQrBLn2AB-90" value="Backend" style="swimlane;whiteSpace=wrap;fontSize=16;" vertex="1" parent="1">
          <mxGeometry x="585" y="850" width="280" height="570" as="geometry" />
        </mxCell>
        <mxCell id="9m_wbiXVtuzaQrBLn2AB-108" value="Генерация&#xa;запроса к БД" style="fontSize=16;" vertex="1" parent="9m_wbiXVtuzaQrBLn2AB-90">
          <mxGeometry x="70" y="110" width="140" height="50" as="geometry" />
        </mxCell>
        <mxCell id="9m_wbiXVtuzaQrBLn2AB-112" value="Сортировка&#xa;данных" style="fontSize=16;" vertex="1" parent="9m_wbiXVtuzaQrBLn2AB-90">
          <mxGeometry x="70" y="190" width="140" height="50" as="geometry" />
        </mxCell>
        <mxCell id="9m_wbiXVtuzaQrBLn2AB-114" value="Генерация&#xa;страницы&#xa;результатов&#xa;поиска" style="fontSize=16;" vertex="1" parent="9m_wbiXVtuzaQrBLn2AB-90">
          <mxGeometry x="70" y="270" width="140" height="80" as="geometry" />
        </mxCell>
        <mxCell id="9m_wbiXVtuzaQrBLn2AB-115" value="" style="endArrow=open;strokeColor=#FF0000;endFill=1;rounded=0;exitX=0.5;exitY=1;exitDx=0;exitDy=0;entryX=0.5;entryY=0;entryDx=0;entryDy=0;fontSize=16;" edge="1" parent="9m_wbiXVtuzaQrBLn2AB-90" source="9m_wbiXVtuzaQrBLn2AB-112" target="9m_wbiXVtuzaQrBLn2AB-114">
          <mxGeometry relative="1" as="geometry">
            <mxPoint x="205" y="145" as="sourcePoint" />
            <mxPoint x="375" y="145" as="targetPoint" />
          </mxGeometry>
        </mxCell>
        <mxCell id="9m_wbiXVtuzaQrBLn2AB-130" value="Генерация&#xa;запроса к БД" style="fontSize=16;" vertex="1" parent="9m_wbiXVtuzaQrBLn2AB-90">
          <mxGeometry x="70" y="410" width="140" height="50" as="geometry" />
        </mxCell>
        <mxCell id="9m_wbiXVtuzaQrBLn2AB-134" value="Генерация&#xa;страницы товара" style="fontSize=16;" vertex="1" parent="9m_wbiXVtuzaQrBLn2AB-90">
          <mxGeometry x="70" y="500" width="140" height="50" as="geometry" />
        </mxCell>
        <mxCell id="9m_wbiXVtuzaQrBLn2AB-97" value="DB" style="swimlane;whiteSpace=wrap;fontSize=16;" vertex="1" parent="1">
          <mxGeometry x="865" y="850" width="280" height="570" as="geometry" />
        </mxCell>
        <mxCell id="9m_wbiXVtuzaQrBLn2AB-110" value="Формирование&#xa;таблицы-ответа" style="fontSize=16;" vertex="1" parent="9m_wbiXVtuzaQrBLn2AB-97">
          <mxGeometry x="70" y="110" width="140" height="50" as="geometry" />
        </mxCell>
        <mxCell id="9m_wbiXVtuzaQrBLn2AB-132" value="Формирование&#xa;таблицы-ответа" style="fontSize=16;" vertex="1" parent="9m_wbiXVtuzaQrBLn2AB-97">
          <mxGeometry x="70" y="410" width="140" height="50" as="geometry" />
        </mxCell>
        <mxCell id="9m_wbiXVtuzaQrBLn2AB-107" value="" style="endArrow=open;strokeColor=#FF0000;endFill=1;rounded=0;exitX=1;exitY=0.5;exitDx=0;exitDy=0;entryX=0;entryY=0.5;entryDx=0;entryDy=0;fontSize=16;" edge="1" parent="1" source="9m_wbiXVtuzaQrBLn2AB-104" target="9m_wbiXVtuzaQrBLn2AB-106">
          <mxGeometry relative="1" as="geometry">
            <mxPoint x="280" y="770" as="sourcePoint" />
            <mxPoint x="410" y="770" as="targetPoint" />
          </mxGeometry>
        </mxCell>
        <mxCell id="9m_wbiXVtuzaQrBLn2AB-109" value="" style="endArrow=open;strokeColor=#FF0000;endFill=1;rounded=0;exitX=1;exitY=0.5;exitDx=0;exitDy=0;entryX=0;entryY=0.5;entryDx=0;entryDy=0;fontSize=16;" edge="1" parent="1" source="9m_wbiXVtuzaQrBLn2AB-106" target="9m_wbiXVtuzaQrBLn2AB-108">
          <mxGeometry relative="1" as="geometry">
            <mxPoint x="230" y="995" as="sourcePoint" />
            <mxPoint x="400" y="995" as="targetPoint" />
          </mxGeometry>
        </mxCell>
        <mxCell id="9m_wbiXVtuzaQrBLn2AB-111" value="" style="endArrow=open;strokeColor=#FF0000;endFill=1;rounded=0;exitX=1;exitY=0.5;exitDx=0;exitDy=0;entryX=0;entryY=0.5;entryDx=0;entryDy=0;fontSize=16;" edge="1" parent="1" source="9m_wbiXVtuzaQrBLn2AB-108" target="9m_wbiXVtuzaQrBLn2AB-110">
          <mxGeometry relative="1" as="geometry">
            <mxPoint x="779.5" y="1080" as="sourcePoint" />
            <mxPoint x="949.5" y="1080" as="targetPoint" />
          </mxGeometry>
        </mxCell>
        <mxCell id="9m_wbiXVtuzaQrBLn2AB-113" value="" style="endArrow=open;strokeColor=#FF0000;endFill=1;rounded=0;exitX=0.5;exitY=1;exitDx=0;exitDy=0;entryX=1;entryY=0.5;entryDx=0;entryDy=0;fontSize=16;" edge="1" parent="1" source="9m_wbiXVtuzaQrBLn2AB-110" target="9m_wbiXVtuzaQrBLn2AB-112">
          <mxGeometry relative="1" as="geometry">
            <mxPoint x="790" y="995" as="sourcePoint" />
            <mxPoint x="960" y="995" as="targetPoint" />
            <Array as="points">
              <mxPoint x="1005" y="1065" />
            </Array>
          </mxGeometry>
        </mxCell>
        <mxCell id="9m_wbiXVtuzaQrBLn2AB-117" value="" style="endArrow=open;strokeColor=#FF0000;endFill=1;rounded=0;exitX=0;exitY=0.5;exitDx=0;exitDy=0;entryX=1;entryY=0.5;entryDx=0;entryDy=0;fontSize=16;" edge="1" parent="1" source="9m_wbiXVtuzaQrBLn2AB-114" target="9m_wbiXVtuzaQrBLn2AB-116">
          <mxGeometry relative="1" as="geometry">
            <mxPoint x="790" y="995" as="sourcePoint" />
            <mxPoint x="960" y="995" as="targetPoint" />
          </mxGeometry>
        </mxCell>
        <mxCell id="9m_wbiXVtuzaQrBLn2AB-120" value="" style="endArrow=open;strokeColor=#FF0000;endFill=1;rounded=0;exitX=0;exitY=0.5;exitDx=0;exitDy=0;entryX=1;entryY=0.5;entryDx=0;entryDy=0;fontSize=16;" edge="1" parent="1" source="9m_wbiXVtuzaQrBLn2AB-116" target="9m_wbiXVtuzaQrBLn2AB-119">
          <mxGeometry relative="1" as="geometry">
            <mxPoint x="405" y="1220" as="sourcePoint" />
            <mxPoint x="235" y="1220" as="targetPoint" />
          </mxGeometry>
        </mxCell>
        <mxCell id="9m_wbiXVtuzaQrBLn2AB-129" value="" style="endArrow=open;strokeColor=#FF0000;endFill=1;rounded=0;exitX=1;exitY=0.5;exitDx=0;exitDy=0;entryX=0;entryY=0.5;entryDx=0;entryDy=0;fontSize=16;" edge="1" parent="1" source="9m_wbiXVtuzaQrBLn2AB-124" target="9m_wbiXVtuzaQrBLn2AB-128">
          <mxGeometry relative="1" as="geometry">
            <mxPoint x="230" y="995" as="sourcePoint" />
            <mxPoint x="400" y="995" as="targetPoint" />
          </mxGeometry>
        </mxCell>
        <mxCell id="9m_wbiXVtuzaQrBLn2AB-131" value="" style="endArrow=open;strokeColor=#FF0000;endFill=1;rounded=0;exitX=1;exitY=0.5;exitDx=0;exitDy=0;entryX=0;entryY=0.5;entryDx=0;entryDy=0;fontSize=16;" edge="1" parent="1" source="9m_wbiXVtuzaQrBLn2AB-128" target="9m_wbiXVtuzaQrBLn2AB-130">
          <mxGeometry relative="1" as="geometry">
            <mxPoint x="510" y="995" as="sourcePoint" />
            <mxPoint x="680" y="995" as="targetPoint" />
          </mxGeometry>
        </mxCell>
        <mxCell id="9m_wbiXVtuzaQrBLn2AB-133" value="" style="endArrow=open;strokeColor=#FF0000;endFill=1;rounded=0;exitX=1;exitY=0.5;exitDx=0;exitDy=0;entryX=0;entryY=0.5;entryDx=0;entryDy=0;fontSize=16;" edge="1" parent="1" source="9m_wbiXVtuzaQrBLn2AB-130" target="9m_wbiXVtuzaQrBLn2AB-132">
          <mxGeometry relative="1" as="geometry">
            <mxPoint x="790" y="995" as="sourcePoint" />
            <mxPoint x="960" y="995" as="targetPoint" />
          </mxGeometry>
        </mxCell>
        <mxCell id="9m_wbiXVtuzaQrBLn2AB-135" value="" style="endArrow=open;strokeColor=#FF0000;endFill=1;rounded=0;exitX=0.5;exitY=1;exitDx=0;exitDy=0;entryX=1;entryY=0.5;entryDx=0;entryDy=0;fontSize=16;" edge="1" parent="1" source="9m_wbiXVtuzaQrBLn2AB-132" target="9m_wbiXVtuzaQrBLn2AB-134">
          <mxGeometry relative="1" as="geometry">
            <mxPoint x="790" y="1295" as="sourcePoint" />
            <mxPoint x="960" y="1295" as="targetPoint" />
            <Array as="points">
              <mxPoint x="1005" y="1375" />
            </Array>
          </mxGeometry>
        </mxCell>
        <mxCell id="9m_wbiXVtuzaQrBLn2AB-137" value="" style="endArrow=open;strokeColor=#FF0000;endFill=1;rounded=0;exitX=0;exitY=0.5;exitDx=0;exitDy=0;entryX=1;entryY=0.5;entryDx=0;entryDy=0;fontSize=16;" edge="1" parent="1" source="9m_wbiXVtuzaQrBLn2AB-134" target="9m_wbiXVtuzaQrBLn2AB-136">
          <mxGeometry relative="1" as="geometry">
            <mxPoint x="680" y="1170" as="sourcePoint" />
            <mxPoint x="510" y="1170" as="targetPoint" />
          </mxGeometry>
        </mxCell>
        <mxCell id="9m_wbiXVtuzaQrBLn2AB-138" value="" style="endArrow=open;strokeColor=#FF0000;endFill=1;rounded=0;exitX=0;exitY=0.5;exitDx=0;exitDy=0;entryX=1;entryY=0.5;entryDx=0;entryDy=0;fontSize=16;" edge="1" parent="1" source="9m_wbiXVtuzaQrBLn2AB-136" target="9m_wbiXVtuzaQrBLn2AB-118">
          <mxGeometry relative="1" as="geometry">
            <mxPoint x="690" y="1180" as="sourcePoint" />
            <mxPoint x="520" y="1180" as="targetPoint" />
          </mxGeometry>
        </mxCell>
      </root>
    </mxGraphModel>
  </diagram>
</mxfile>
